Patient4_TMGait_0pt4_03_right_06_GRF.mot
version=1
nRows=58
nColumns=19
inDegrees=no
endheader
time	F1x	F1y	F1z	M1x	M1y	M1z	F2x	F2y	F2z	M2x	M2y	M2z	EC1x	EC1y	EC1z	EC2x	EC2y	EC2z
6.76	-21.4711	729.6446	66.4232	-262.7715	-72.3764	772.4191	5.0346	32.959	-6.0125	7.958	5.5221	41.9495	-0.0592	0.0182	-0.0073	-0.0462	0.0165	0.9585
6.7734	-13.9712	732.1875	61.5852	-263.3348	-65.5621	774.1857	3.4309	22.8873	-4.1203	5.5569	3.8471	29.132	-0.0592	0.0182	-0.0073	-0.0462	0.0165	0.9585
6.7869	-7.4274	735.0131	57.472	-264.0042	-59.5669	775.5837	2.0235	14.3431	-2.5297	3.526	2.4479	18.2796	-0.0592	0.0182	-0.0073	-0.0462	0.0165	0.9585
6.8003	-2.2694	738.2141	54.3751	-264.7992	-54.8048	776.7953	0.91862	7.8322	-1.3234	1.9843	1.3904	10.0128	-0.0592	0.0182	-0.0073	-0.0462	0.0165	0.9585
6.8137	1.4226	741.8462	52.3799	-265.7025	-51.4108	778.0321	0.12271	3.3247	-0.4961	0.92187	0.66949	4.2895	-0.0592	0.0182	-0.0073	-0.0462	0.0165	0.9585
6.8271	3.798	745.8904	51.406	-266.6652	-49.3026	779.443	-0.406	0.52731	0.010471	0.26582	0.23649	0.7373	-0.0592	0.0182	-0.0073	-0.0462	0.0165	0.9585
6.8406	5.1327	750.2427	51.2874	-267.6192	-48.2824	781.0618	-0.71623	-0.98358	0.26735	-0.087062	0.029406	-1.1865	-0.0592	0.0182	-0.0073	-0.0462	0.0165	0.9585
6.854	5.7527	754.7344	51.8291	-268.4883	-48.1044	782.8199	-0.89653	-1.6364	0.34811	-0.24358	-0.010354	-2.015	-0.0592	0.0182	-0.0073	-0.0462	0.0165	0.9585
6.8674	5.9879	759.1437	52.8214	-269.1973	-48.4961	784.5595	-0.99862	-1.8237	0.31241	-0.30503	0.062017	-2.2483	-0.0592	0.0182	-0.0073	-0.0462	0.0165	0.9585
6.8809	6.1041	763.2247	54.0726	-269.6807	-49.2063	786.0726	-1.0758	-1.8551	0.20346	-0.3552	0.20858	-2.2688	-0.0592	0.0182	-0.0073	-0.0462	0.0165	0.9585
6.8943	6.3063	766.7267	55.3807	-269.8856	-49.9892	787.0981	-1.1596	-1.9817	0.05823	-0.46331	0.39595	-2.3841	-0.0592	0.0182	-0.0073	-0.0462	0.0165	0.9585
6.9077	6.7303	769.4002	56.5727	-269.764	-50.6389	787.3605	-1.25	-2.3802	-0.1061	-0.67798	0.60602	-2.8113	-0.0592	0.0182	-0.0073	-0.0462	0.0165	0.9585
6.9211	7.48	770.9871	57.5195	-269.2628	-50.9985	786.5622	-1.3303	-3.1241	-0.2724	-1.0181	0.81627	-3.6374	-0.0592	0.0182	-0.0073	-0.0462	0.0165	0.9585
6.9346	8.5959	771.2562	58.1757	-268.3289	-51.0035	784.4323	-1.3423	-4.2108	-0.4278	-1.4766	0.99055	-4.8714	-0.0592	0.0182	-0.0073	-0.0462	0.0165	0.9585
6.948	10.0771	770.0836	58.5556	-266.935	-50.6567	780.8205	-1.2222	-5.4949	-0.54364	-1.9979	1.0681	-6.3456	-0.0592	0.0182	-0.0073	-0.0462	0.0165	0.9585
6.9614	11.8899	767.5076	58.7242	-265.1012	-50.0168	775.7579	-0.84215	-6.6625	-0.59018	-2.4649	0.96637	-7.7032	-0.0592	0.0182	-0.0073	-0.0462	0.0165	0.9585
6.9749	13.9652	763.7625	58.778	-262.9042	-49.1856	769.4975	-0.052851	-7.1844	-0.51316	-2.6782	0.56846	-8.3332	-0.0592	0.0182	-0.0073	-0.0462	0.0165	0.9585
6.9883	16.2372	759.2102	58.834	-260.4585	-48.2911	762.4212	1.2942	-6.2822	-0.24441	-2.3439	-0.25515	-7.3366	-0.0592	0.0182	-0.0073	-0.0462	0.0165	0.9585
7.0017	18.6366	754.2578	58.9999	-257.8928	-47.457	754.97	3.3498	-2.9048	0.30335	-1.0655	-1.6494	-3.5019	-0.0592	0.0182	-0.0073	-0.0462	0.0165	0.9585
7.0151	21.1173	749.266	59.345	-255.3211	-46.7704	747.5375	6.1801	4.2464	1.2158	1.6439	-3.7297	4.6808	-0.0592	0.0182	-0.0073	-0.0462	0.0165	0.9585
7.0286	23.6211	744.3554	59.8969	-252.7774	-46.2825	740.2911	9.7154	16.5545	2.5619	6.3074	-6.5401	18.8092	-0.0592	0.0182	-0.0073	-0.0462	0.0165	0.9585
7.042	26.0703	739.2218	60.6159	-250.1522	-45.9876	732.9938	13.6301	35.2479	4.3477	13.3878	-9.9593	40.3069	-0.0592	0.0182	-0.0073	-0.0462	0.0165	0.9585
7.0554	28.3379	733.0353	61.3774	-247.16	-45.8174	724.8946	17.2324	60.9252	6.4855	23.1109	-13.614	69.872	-0.0592	0.0182	-0.0073	-0.0462	0.0165	0.9585
7.0689	30.2619	724.5559	61.9638	-243.3823	-45.6331	714.8548	19.3133	92.8374	8.7164	35.196	-16.7464	106.66	-0.0592	0.0182	-0.0073	-0.0462	0.0165	0.9585
7.0823	31.6884	712.424	62.1106	-238.3737	-45.2479	701.6075	18.3137	128.2584	10.5301	48.6069	-18.2061	147.5846	-0.0592	0.0182	-0.0073	-0.0462	0.0165	0.9585
7.0957	32.5097	695.6287	61.5926	-231.8196	-44.4945	684.1955	13.8768	162.9254	11.1582	61.6891	-16.9969	187.8136	-0.0592	0.0182	-0.0073	-0.0462	0.0165	0.9585
7.1091	32.7384	673.9558	60.2976	-223.6856	-43.2679	662.3745	7.612	192.5289	10.0465	72.7738	-13.1554	222.3263	-0.0592	0.0182	-0.0073	-0.0462	0.0165	0.9585
7.1226	32.5347	648.0414	58.3258	-214.2252	-41.6055	636.6699	1.2468	214.5582	7.519	80.9127	-7.7134	248.0226	-0.0592	0.0182	-0.0073	-0.0462	0.0165	0.9585
7.136	32.1623	619.035	55.8815	-203.8638	-39.6001	608.0735	-4.3069	229.4733	3.8525	86.2832	-1.3557	265.2961	-0.0592	0.0182	-0.0073	-0.0462	0.0165	0.9585
7.1494	31.8741	588.1698	53.1585	-193.0453	-37.3323	577.6664	-8.9335	240.347	-0.36737	90.066	5.2384	277.6707	-0.0592	0.0182	-0.0073	-0.0462	0.0165	0.9585
7.1629	31.8124	556.2546	50.2385	-182.0592	-34.8214	546.175	-12.9221	251.3426	-4.8574	93.8489	11.8549	289.9752	-0.0592	0.0182	-0.0073	-0.0462	0.0165	0.9585
7.1763	31.9629	523.5022	47.0477	-170.9806	-31.9953	513.8058	-16.4686	266.3763	-9.2558	99.125	18.2055	306.6555	-0.0592	0.0182	-0.0073	-0.0462	0.0165	0.9585
7.1897	32.1725	489.5628	43.4224	-159.6853	-28.7469	480.2563	-19.6437	288.325	-13.5298	106.9721	24.2906	330.9357	-0.0592	0.0182	-0.0073	-0.0462	0.0165	0.9585
7.2031	32.1492	453.7105	39.2428	-147.911	-25.054	444.8742	-22.4374	318.7936	-17.7267	117.9751	30.182	364.5689	-0.0592	0.0182	-0.0073	-0.0462	0.0165	0.9585
7.2166	31.5419	415.1001	34.5563	-135.3424	-21.0714	406.8854	-24.8502	358.0615	-22.0919	132.2031	36.1447	407.8413	-0.0592	0.0182	-0.0073	-0.0462	0.0165	0.9585
7.23	30.0038	373.1174	29.5678	-121.7323	-17.0949	365.7296	-26.8689	405.0285	-26.9174	149.1989	42.4804	459.4724	-0.0592	0.0182	-0.0073	-0.0462	0.0165	0.9585
7.2434	27.2533	327.7416	24.599	-107.0243	-13.5068	321.4046	-28.5296	457.4656	-32.5038	168.0908	49.4946	516.908	-0.0592	0.0182	-0.0073	-0.0462	0.0165	0.9585
7.2569	23.1797	279.792	19.9473	-91.4486	-10.6187	274.6802	-29.9294	512.6958	-39.0042	187.8577	57.3436	577.1131	-0.0592	0.0182	-0.0073	-0.0462	0.0165	0.9585
7.2703	17.8983	230.9709	15.8386	-75.5408	-8.6081	227.1675	-31.1172	568.2796	-46.2833	207.5955	65.8681	637.3183	-0.0592	0.0182	-0.0073	-0.0462	0.0165	0.9585
7.2837	11.8469	183.5948	12.3584	-60.0587	-7.4228	181.0611	-32.1372	622.2301	-53.9984	226.5879	74.6885	695.3052	-0.0592	0.0182	-0.0073	-0.0462	0.0165	0.9585
7.2971	5.7387	140.0061	9.5324	-45.7812	-6.8579	138.5832	-32.9812	672.7444	-61.635	244.2114	83.2322	749.0744	-0.0592	0.0182	-0.0073	-0.0462	0.0165	0.9585
7.3106	0.34816	101.943	7.2931	-33.2942	-6.5972	101.387	-33.6219	718.0656	-68.7117	259.862	90.9568	796.7261	-0.0592	0.0182	-0.0073	-0.0462	0.0165	0.9585
7.324	-3.7424	70.2633	5.5191	-22.898	-6.3321	70.3047	-34.0147	756.4947	-74.7733	272.9566	97.3592	836.4529	-0.0592	0.0182	-0.0073	-0.0462	0.0165	0.9585
7.3374	-6.2413	45.1019	4.0624	-14.6512	-5.823	45.5051	-34.1363	786.5428	-79.5353	282.9827	102.1288	866.7145	-0.0592	0.0182	-0.0073	-0.0462	0.0165	0.9585
7.3509	-7.1083	26.107	2.8248	-8.444	-4.9644	26.6855	-33.9809	807.1482	-82.8169	289.5782	105.0868	886.4661	-0.0592	0.0182	-0.0073	-0.0462	0.0165	0.9585
7.3643	-6.6188	12.6544	1.7823	-4.0685	-3.8307	13.278	-33.5441	817.8361	-84.6211	292.5894	106.2565	895.3079	-0.0592	0.0182	-0.0073	-0.0462	0.0165	0.9585
7.3777	-5.3809	3.9858	0.96594	-1.2647	-2.6566	4.5826	-32.8419	818.8667	-85.0448	292.1288	105.7729	893.6219	-0.0592	0.0182	-0.0073	-0.0462	0.0165	0.9585
7.3911	-3.9058	-0.90141	0.40672	0.30421	-1.6462	-0.35636	-31.8687	811.3024	-84.2945	288.6004	103.8814	882.6274	-0.0592	0.0182	-0.0073	-0.0462	0.0165	0.9585
7.4046	-2.5188	-3.0579	0.051556	0.98656	-0.85992	-2.5556	-30.6213	797.013	-82.5952	282.6993	100.8527	864.3867	-0.0592	0.0182	-0.0073	-0.0462	0.0165	0.9585
7.418	-1.3656	-3.4406	-0.13126	1.0955	-0.31836	-2.9823	-29.11	778.4694	-80.2197	275.3319	97.0073	841.5712	-0.0592	0.0182	-0.0073	-0.0462	0.0165	0.9585
7.4314	-0.5006	-2.7943	-0.2043	0.87299	0.020263	-2.3796	-27.357	758.403	-77.4475	267.4909	92.6739	817.0897	-0.0592	0.0182	-0.0073	-0.0462	0.0165	0.9585
7.4449	0.092496	-1.6721	-0.19529	0.49821	0.18964	-1.3027	-25.4103	739.428	-74.5725	260.1206	88.197	793.6993	-0.0592	0.0182	-0.0073	-0.0462	0.0165	0.9585
7.4583	0.45373	-0.43818	-0.14637	0.086745	0.2438	-0.11729	-23.335	723.758	-71.8623	254.016	83.8933	773.7077	-0.0592	0.0182	-0.0073	-0.0462	0.0165	0.9585
7.4717	0.62598	0.69467	-0.074596	-0.2917	0.21513	0.9699	-21.1798	712.9962	-69.5468	249.7475	80.0302	758.7532	-0.0592	0.0182	-0.0073	-0.0462	0.0165	0.9585
7.4851	0.67097	1.6155	0.0016053	-0.60054	0.14071	1.8416	-18.9787	708.024	-67.7646	247.6259	76.7676	749.6976	-0.0592	0.0182	-0.0073	-0.0462	0.0165	0.9585
7.4986	0.61124	2.2862	0.075684	-0.8241	0.037021	2.4778	-16.7283	708.9936	-66.5617	247.7013	74.1482	746.6352	-0.0592	0.0182	-0.0073	-0.0462	0.0165	0.9585
7.512	0.48381	2.6841	0.14321	-0.95532	-0.079068	2.8505	-14.4062	715.4019	-65.8917	249.7908	72.1062	748.9973	-0.0592	0.0182	-0.0073	-0.0462	0.0165	0.9585
7.5254	0.30708	2.8035	0.2072	-0.9925	-0.20548	2.9435	-11.9899	726.1749	-65.6492	253.5098	70.5121	755.6443	-0.0592	0.0182	-0.0073	-0.0462	0.0165	0.9585
